
      <svg width="1024" height="1024" xmlns="http://www.w3.org/2000/svg">
        <defs>
          <linearGradient id="bg" x1="0%" y1="0%" x2="100%" y2="100%">
            <stop offset="0%" style="stop-color:#4facfe;stop-opacity:1" />
            <stop offset="100%" style="stop-color:#00f2fe;stop-opacity:1" />
          </linearGradient>
          <marker id="arrowhead" markerWidth="10" markerHeight="7" refX="9" refY="3.5" orient="auto">
            <polygon points="0 0, 10 3.5, 0 7" fill="white"/>
          </marker>
        </defs>
        <rect width="100%" height="100%" fill="url(#bg)"/>
        <circle cx="512" cy="512" r="300" fill="#ffd93d" stroke="#ff6b6b" stroke-width="8"/>
        <path d="M512,200 L512,824 M200,512 L824,512 M200,200 L824,824 M824,200 L200,824 M512,200 L200,512 M512,200 L824,512 M512,824 L200,512 M512,824 L824,512" stroke="#ff6b6b" stroke-width="4" fill="none"/>
        <path d="M200,200 L512,200 L512,356 L200,356 Z" fill="#ff6b6b" opacity="0.3"/>
        <circle cx="400" cy="400" r="12" fill="#ff6b6b"/>
        <circle cx="624" cy="400" r="12" fill="#ff6b6b"/>
        <circle cx="400" cy="624" r="12" fill="#ff6b6b"/>
        <circle cx="624" cy="624" r="12" fill="#ff6b6b"/>
        <circle cx="512" cy="512" r="12" fill="#ff6b6b"/>
        <text x="512" y="200" font-family="Arial, sans-serif" font-size="72" fill="white" text-anchor="middle" font-weight="bold">
          1/8
        </text>
        <text x="512" y="850" font-family="Arial, sans-serif" font-size="28" fill="white" text-anchor="middle">
          Pizza Fractions
        </text>
      </svg>
    